#!OML:ASF E:\acrobat2\Project_11_07_03\Capture day 1\Session 1\Acrobat.ASF
:FULLY-SPECIFIED
:DEGREES
159
root 12.9172 20.4866 10.1422 3.18829 4.35061 1.40261
lowerback -7.127 0.81395 -0.705702
upperback -0.483294 1.21746 -2.04612
thorax 3.52746 0.609446 -1.59561
lowerneck -0.27938 -2.62001 0.266675
upperneck 6.39005 -3.66129 2.68158
head 2.09539 -1.75512 0.727362
rclavicle 3.78933e-016 -3.57812e-015
rhumerus -36.5177 -7.78733 -81.9183
rradius 28.8637
rwrist 5.25276
rhand -4.32852 -38.6623
rfingers 7.12502
rthumb 21.4385 -67.4961
lclavicle 3.78933e-016 -3.57812e-015
lhumerus -30.1543 -6.50567 86.3025
lradius 22.4998
lwrist 6.18869
lhand -3.46964 -13.8459
lfingers 7.12502
lthumb 22.2632 14.8917
rfemur -5.01347 12.4315 16.9491
rtibia 23.5157
rfoot -40.0064 -17.836
rtoes 15.3449
lfemur -17.7097 -3.35637 -15.4792
ltibia 39.2005
lfoot -32.6635 -15.4075
ltoes -0.729568
160
root 12.918 20.4858 10.143 3.19002 4.40494 1.43275
lowerback -7.10057 0.805967 -0.718676
upperback -0.48132 1.20755 -2.05004
thorax 3.51428 0.604368 -1.59369
lowerneck -0.306584 -2.65157 0.255475
upperneck 6.36513 -3.70345 2.68994
head 2.09316 -1.77628 0.730796
rclavicle 1.22998e-015 -9.93923e-015
rhumerus -36.4498 -7.72944 -81.9474
rradius 28.8049
rwrist 5.26644
rhand -4.28174 -38.663
rfingers 7.12502
rthumb 21.4834 -67.4917
lclavicle 1.22998e-015 -9.93923e-015
lhumerus -30.1673 -6.72195 86.4013
lradius 22.4424
lwrist 6.36625
lhand -3.45503 -13.7847
lfingers 7.12502
lthumb 22.2772 14.9512
rfemur -5.00549 12.4011 16.9189
rtibia 23.5293
rfoot -40.0509 -17.8404
rtoes 15.3717
lfemur -17.7142 -3.36442 -15.5146
ltibia 39.1996
lfoot -32.6344 -15.4508
ltoes -0.692637
161
root 12.919 20.4846 10.1445 3.19943 4.45559 1.48049
lowerback -7.06797 0.795348 -0.744728
upperback -0.499055 1.19488 -2.06179
thorax 3.47708 0.597742 -1.59296
lowerneck -0.306633 -2.68709 0.259531
upperneck 6.36409 -3.74963 2.66525
head 2.09277 -1.79979 0.721393
rclavicle -7.12519e-015 9.93923e-015
rhumerus -36.4312 -7.6762 -81.9744
rradius 28.7644
rwrist 5.30477
rhand -4.22504 -38.6821
rfingers 7.12502
rthumb 21.5378 -67.5046
lclavicle -7.12519e-015 9.93923e-015
lhumerus -30.2132 -6.93931 86.4923
lradius 22.3893
lwrist 6.53133
lhand -3.42062 -13.6869
lfingers 7.12502
lthumb 22.3102 15.0451
rfemur -5.00571 12.3296 16.8639
rtibia 23.5515
rfoot -40.0591 -17.8416
rtoes 15.3248
lfemur -17.7204 -3.36718 -15.5715
ltibia 39.1963
lfoot -32.6049 -15.4935
ltoes -0.655513
162
root 12.92 20.4833 10.1462 3.21779 4.49892 1.53386
lowerback -7.01922 0.784224 -0.774092
upperback -0.540933 1.18099 -2.0767
thorax 3.40584 0.590454 -1.59405
lowerneck -0.284886 -2.72589 0.282016
upperneck 6.39018 -3.79919 2.60785
head 2.09614 -1.82518 0.698668
rclavicle 1.73937e-015 -1.19271e-015
rhumerus -36.4697 -7.63286 -81.995
rradius 28.7505
rwrist 5.37034
rhand -4.16103 -38.7278
rfingers 7.12502
rthumb 21.5993 -67.5432
lclavicle 1.73937e-015 -1.19271e-015
lhumerus -30.3013 -7.16425 86.5812
lradius 22.3459
lwrist 6.68213
lhand -3.39637 -13.5906
lfingers 7.12502
lthumb 22.3335 15.1386
rfemur -5.01424 12.2527 16.8014
rtibia 23.5735
rfoot -40.0493 -17.8532
rtoes 15.2521
lfemur -17.7345 -3.36576 -15.6341
ltibia 39.1942
lfoot -32.578 -15.5364
ltoes -0.605363
163
root 12.9206 20.482 10.1476 3.24112 4.52947 1.57318
lowerback -6.95082 0.776296 -0.789211
upperback -0.602528 1.16919 -2.08794
thorax 3.30347 0.584369 -1.59944
lowerneck -0.249931 -2.76487 0.314312
upperneck 6.43513 -3.8487 2.5368
head 2.10271 -1.85051 0.670095
rclavicle 8.19987e-015 1.43125e-014
rhumerus -36.5514 -7.59173 -82.0138
rradius 28.7536
rwrist 5.44683
rhand -4.11682 -38.7881
rfingers 7.12502
rthumb 21.6418 -67.5986
lclavicle 8.19987e-015 1.43125e-014
lhumerus -30.4269 -7.37584 86.6639
lradius 22.3207
lwrist 6.80692
lhand -3.40257 -13.5299
lfingers 7.12502
lthumb 22.3276 15.2
rfemur -5.0274 12.1725 16.7562
rtibia 23.5876
rfoot -40.0049 -17.8995
rtoes 15.0801
lfemur -17.7571 -3.36405 -15.6793
ltibia 39.1974
lfoot -32.559 -15.5697
ltoes -0.548812
164
root 12.9209 20.4815 10.1488 3.26664 4.54641 1.58215
lowerback -6.87124 0.775138 -0.773553
upperback -0.674026 1.16322 -2.0902
thorax 3.18521 0.581533 -1.61243
lowerneck -0.210351 -2.80074 0.323725
upperneck 6.48335 -3.89526 2.49549
head 2.11075 -1.8742 0.654881
rclavicle 2.36057e-014 4.77083e-015
rhumerus -36.6492 -7.54688 -82.0357
rradius 28.7486
rwrist 5.50128
rhand -4.15563 -38.8118
rfingers 7.12502
rthumb 21.6045 -67.6266
lclavicle 2.36057e-014 4.77083e-015
lhumerus -30.577 -7.55707 86.7371
lradius 22.3202
lwrist 6.90196
lhand -3.44257 -13.5287
lfingers 7.12502
lthumb 22.2892 15.2058
rfemur -5.04539 12.1372 16.7483
rtibia 23.5913
rfoot -39.9645 -17.9799
rtoes 14.8972
lfemur -17.7872 -3.36645 -15.6885
ltibia 39.2055
lfoot -32.5494 -15.5818
ltoes -0.512158
165
root 12.9207 20.4813 10.15 3.28959 4.55324 1.56652
lowerback -6.79303 0.7804 -0.734986
upperback -0.741454 1.16396 -2.08341
thorax 3.07238 0.582233 -1.62828
lowerneck -0.179165 -2.83013 0.293412
upperneck 6.52425 -3.9351 2.50383
head 2.12002 -1.89434 0.662068
rclavicle 5.81445e-015 -5.1684e-015
rhumerus -36.7357 -7.50421 -82.0604
rradius 28.7117
rwrist 5.52244
rhand -4.32751 -38.7459
rfingers 7.12502
rthumb 21.4394 -67.5796
lclavicle 5.81445e-015 -5.1684e-015
lhumerus -30.7304 -7.69125 86.7982
lradius 22.3405
lwrist 6.97006
lhand -3.5023 -13.5813
lfingers 7.12502
lthumb 22.2318 15.1601
rfemur -5.05795 12.1149 16.7728
rtibia 23.5845
rfoot -39.9059 -18.0965
rtoes 14.5883
lfemur -17.8177 -3.36649 -15.6685
ltibia 39.2185
lfoot -32.5435 -15.5775
ltoes -0.510424
166
root 12.9205 20.4813 10.1516 3.30578 4.55234 1.54377
lowerback -6.72794 0.790529 -0.690717
upperback -0.792784 1.17133 -2.07208
thorax 2.98376 0.586263 -1.64182
lowerneck -0.167104 -2.84985 0.22698
upperneck 6.55454 -3.96381 2.55616
head 2.13113 -1.90873 0.68924
rclavicle 2.19906e-015 -3.57812e-015
rhumerus -36.797 -7.46445 -82.0903
rradius 28.64
rwrist 5.51595
rhand -4.6107 -38.5866
rfingers 7.12502
rthumb 21.1674 -67.451
lclavicle 2.19906e-015 -3.57812e-015
lhumerus -30.8669 -7.7661 86.8438
lradius 22.3743
lwrist 7.01422
lhand -3.55931 -13.6677
lfingers 7.12502
lthumb 22.1771 15.0802
rfemur -5.06189 12.1289 16.8071
rtibia 23.5719
rfoot -39.8745 -18.2009
rtoes 14.3279
lfemur -17.8357 -3.35898 -15.6407
ltibia 39.2329
lfoot -32.5358 -15.5648
ltoes -0.531827
167
root 12.9205 20.4813 10.1538 3.31294 4.54736 1.53281
lowerback -6.68398 0.803438 -0.655785
upperback -0.821235 1.18419 -2.06313
thorax 2.93061 0.592946 -1.65172
lowerneck -0.177139 -2.85839 0.134459
upperneck 6.57758 -3.97897 2.64063
head 2.14515 -1.91614 0.730994
rclavicle 1.26601e-014 -9.54166e-015
rhumerus -36.8326 -7.43158 -82.1263
rradius 28.5468
rwrist 5.49355
rhand -4.93661 -38.3789
rfingers 7.12502
rthumb 20.8543 -67.2781
lclavicle 1.26601e-014 -9.54166e-015
lhumerus -30.9673 -7.77377 86.8678
lradius 22.4065
lwrist 7.02347
lhand -3.58673 -13.7644
lfingers 7.12502
lthumb 22.1508 14.9866
rfemur -5.05367 12.1602 16.826
rtibia 23.5582
rfoot -39.8821 -18.2434
rtoes 14.2329
lfemur -17.8353 -3.34942 -15.6286
ltibia 39.2473
lfoot -32.5267 -15.5445
ltoes -0.558023
168
root 12.921 20.4811 10.1566 3.31 4.54345 1.54255
lowerback -6.66004 0.816831 -0.635289
upperback -0.826348 1.19992 -2.06156
thorax 2.91272 0.600987 -1.66051
lowerneck -0.193947 -2.85684 0.0317754
upperneck 6.58767 -3.98113 2.74218
head 2.15673 -1.91699 0.780169
rclavicle 5.60324e-015 -2.06736e-014
rhumerus -36.8482 -7.41046 -82.1685
rradius 28.4481
rwrist 5.46948
rhand -5.21789 -38.195
rfingers 7.12502
rthumb 20.5841 -67.1236
lclavicle 5.60324e-015 -2.06736e-014
lhumerus -31.0222 -7.73383 86.8715
lradius 22.4241
lwrist 7.00384
lhand -3.57603 -13.8426
lfingers 7.12502
lthumb 22.161 14.9072
rfemur -5.03329 12.1956 16.8177
rtibia 23.5471
rfoot -39.9194 -18.2237
rtoes 14.3094
lfemur -17.8164 -3.34041 -15.6434
ltibia 39.2604
lfoot -32.5102 -15.5229
ltoes -0.556306
169
root 12.922 20.4808 10.1597 3.30112 4.54308 1.56392
lowerback -6.65285 0.830495 -0.617518
upperback -0.816086 1.21711 -2.06753
thorax 2.92023 0.609817 -1.67513
lowerneck -0.186941 -2.85075 -0.0600929
upperneck 6.57107 -3.97615 2.83865
head 2.15481 -1.91465 0.826554
rclavicle -1.49213e-014 5.56597e-015
rhumerus -36.8585 -7.39706 -82.2178
rradius 28.3571
rwrist 5.45176
rhand -5.40051 -38.0683
rfingers 7.12502
rthumb 20.4086 -67.0159
lclavicle -1.49213e-014 5.56597e-015
lhumerus -31.043 -7.69557 86.868
lradius 22.4243
lwrist 6.97562
lhand -3.55058 -13.8893
lfingers 7.12502
lthumb 22.1855 14.8575
rfemur -5.0054 12.2161 16.7908
rtibia 23.5351
rfoot -39.9584 -18.1621
rtoes 14.4813
lfemur -17.7903 -3.33521 -15.6747
ltibia 39.2746
lfoot -32.4822 -15.504
ltoes -0.514414
